PathFileType	4	(X/Y/Z)	C:\Users\u0145647\OneDrive - KU Leuven\KU Leuven\c3d2osim\CP4\T0\Data\Processed\ViconC3D_CP4_2\CP4_T0_cmj_T2_gapFilled.trc
DataRate	CameraRate	NumFrames	NumMarkers	Units	OrigDataRate	OrigDataStartFrame	OrigNumFrames
100.000000	100.000000	4	47	mm	100.000000	399	638
Frame#	Time	C7			T10			CLAV			STRN			LSHO			RSHO			RBAK			LASI			RASI			LPSI			RPSI			LLAT			RLAT			LF1			LF2			LF3			LTHI			LKNE			LMEK			RF1			RF2			RF3			RTHI			RKNE			RMEK			LT1			LT2			LT3			LTIB			LANK			LMM			RT1			RT2			RT3			RTIB			RANK			RMM			LHEE			LSTL			LLCA			LTOE			LCM5			RHEE			RSTL			RLCA			RTOE			RCM5
		X1	Y1	Z1	X2	Y2	Z2	X3	Y3	Z3	X4	Y4	Z4	X5	Y5	Z5	X6	Y6	Z6	X7	Y7	Z7	X8	Y8	Z8	X9	Y9	Z9	X10	Y10	Z10	X11	Y11	Z11	X12	Y12	Z12	X13	Y13	Z13	X14	Y14	Z14	X15	Y15	Z15	X16	Y16	Z16	X17	Y17	Z17	X18	Y18	Z18	X19	Y19	Z19	X20	Y20	Z20	X21	Y21	Z21	X22	Y22	Z22	X23	Y23	Z23	X24	Y24	Z24	X25	Y25	Z25	X26	Y26	Z26	X27	Y27	Z27	X28	Y28	Z28	X29	Y29	Z29	X30	Y30	Z30	X31	Y31	Z31	X32	Y32	Z32	X33	Y33	Z33	X34	Y34	Z34	X35	Y35	Z35	X36	Y36	Z36	X37	Y37	Z37	X38	Y38	Z38	X39	Y39	Z39	X40	Y40	Z40	X41	Y41	Z41	X42	Y42	Z42	X43	Y43	Z43	X44	Y44	Z44	X45	Y45	Z45	X46	Y46	Z46	X47	Y47	Z47

399	3.98	-109.85	1457	-264.48	-84.097	1186.6	-331.56	-119.53	1344	-170.2	-117.86	1196.9	-153.7	94.887	1387.1	-180.12	-300.39	1391	-261.31	-217.37	1367	-336.66	-30.373	925.61	-158.34	-225.07	925.08	-213.86	-49.392	953.91	-339.77	-118.4	958.38	-361.22	33.595	989.4	-206	-252.32	996.36	-283.92	86.733	680.42	-161.9	80.867	721.53	-183.51	92.376	671.45	-195.97	146.66	608.04	-173.85	98.384	471.11	-145.06	NaN	NaN	NaN	-289.73	648.35	-265.4	-292.46	683.07	-248.09	-273.16	675.63	-307.4	-333.58	589.5	-261.3	-283.11	466.22	-208.09	NaN	NaN	NaN	138.19	313.46	-230.45	125.27	340.45	-176.86	128.46	357.25	-226.33	173.25	237.75	-188.55	143.5	83.852	-298.82	60.748	76.483	-264.84	-315.03	320.55	-243.63	-301.07	360.67	-214.87	-304.37	367.2	-266.39	-366.88	255.39	-240.14	-326.42	72.818	-264.23	-244.42	77.286	-231.57	90.828	60.38	-338.46	69.175	47.107	-270.54	144.31	55.43	-296.67	144.08	49.524	-169.84	183.78	46.557	-193.56	-275.72	61.507	-303.66	-252.48	41.325	-234.89	-328.7	47.364	-257.39	-332.91	45.887	-130.93	-378.09	34.327	-168.96
400	3.99	-105.67	1456.7	-265.84	-80.007	1186.5	-332.99	-115.63	1343.5	-171.54	-114.03	1196.6	-155.26	98.41	1387	-180.15	-296.22	1391	-263.49	-212.8	1366.9	-338.39	-26.897	925.8	-159.6	-221.62	924.97	-215.49	-45.893	953.39	-341.24	-114.84	957.61	-362.72	37.14	989.18	-207.45	-248.68	996.25	-285.88	89.52	680.17	-162.16	83.964	721.12	-182.87	95.188	670.99	-196.49	149.05	607.27	-173.8	99.971	470.78	-144.49	NaN	NaN	NaN	-286.95	648.26	-266.01	-289.71	682.91	-248.66	-269.89	675.67	-307.84	-331.43	589.66	-261.74	-281.45	466.31	-208.52	NaN	NaN	NaN	139.46	312.95	-229.69	126.58	339.99	-176.12	130.4	356.99	-225.43	173.76	236.94	-187.65	144.3	84.119	-298.96	61.05	76.381	-264.68	-313.89	320.73	-243.88	-299.77	360.82	-215.08	-303.07	367.24	-266.66	-366	255.75	-240.47	-326.26	73.005	-264.21	-244.22	77.225	-231.51	91.154	60.424	-338.34	69.5	47.085	-270.34	144.58	55.25	-296.56	144.36	49.342	-169.64	184.03	46.268	-193.44	-275.49	61.492	-303.6	-252.42	41.273	-234.78	-328.62	47.543	-257.41	-332.91	45.936	-130.92	-378.04	34.376	-168.93
401	4	-101.55	1456.4	-267.21	-75.947	1186.3	-334.52	-111.99	1343.3	-172.93	-110.21	1196.3	-156.7	101.97	1386.8	-180.21	-292.05	1390.9	-265.67	-208.27	1366.7	-340.16	-23.443	926.07	-160.68	-218.44	925.05	-216.81	-42.296	952.77	-342.55	-111.19	956.8	-364.23	40.723	988.72	-209.39	-245.15	996.11	-287.78	92.165	679.68	-162.98	86.956	720.99	-183.63	97.714	670.77	-196.45	151.23	606.67	-173.7	101.57	470.65	-144.06	NaN	NaN	NaN	-284.44	648.15	-266.85	-286.84	683.23	-249.64	-267.19	675.29	-308.72	-329.28	589.85	-262.32	-279.8	466.28	-208.97	NaN	NaN	NaN	140.55	312.59	-229.16	127.7	339.74	-175.59	131.48	356.52	-224.9	174.54	236.46	-187	144.07	83.432	-298.56	61.263	76.346	-264.52	-312.74	320.87	-244.27	-298.66	361.03	-215.54	-301.63	367.38	-267.12	-365.21	256.12	-240.99	-326.05	73.179	-264.23	-244.06	77.171	-231.36	91.4	60.464	-338.23	69.619	46.931	-270.34	144.72	55.007	-296.42	144.66	49.129	-169.48	184.3	45.992	-193.38	-275.28	61.512	-303.57	-252.3	41.287	-234.73	-328.48	47.705	-257.46	-332.88	45.945	-130.91	-378.01	34.427	-168.89
402	4.01	-97.515	1456.2	-268.55	-71.894	1186.3	-335.98	-108.07	1343	-174.34	-106.38	1195.9	-158.19	105.45	1386.7	-180.24	-287.91	1390.8	-267.82	-203.77	1366.4	-341.98	-20.235	926.41	-161.63	-215.15	925	-218.39	-38.742	952.03	-343.54	-107.52	955.9	-365.56	44.01	988.32	-211.18	-241.5	995.92	-289.79	94.63	679.5	-163.03	89.631	720.83	-183.61	100.19	670.57	-196.68	153.28	606.19	-173.91	103.14	470.49	-143.85	NaN	NaN	NaN	-282.36	648.18	-267.89	-284.15	683.29	-250.75	-264.63	674.6	-309.71	-327.21	590.04	-263.1	-278.68	466.51	-209.67	NaN	NaN	NaN	141.65	312.2	-228.93	129	339.37	-175.38	132.51	356.33	-224.92	175.51	235.97	-186.78	144.86	83.712	-298.75	61.494	76.32	-264.45	-311.72	321.06	-244.8	-297.63	361.18	-216.08	-300.44	367.52	-267.66	-364.41	256.53	-241.55	-325.93	73.373	-264.3	-243.96	77.186	-231.26	91.651	60.498	-338.19	69.803	46.904	-270.3	144.94	54.844	-296.4	144.91	48.988	-169.36	184.56	45.694	-193.35	-275.09	61.522	-303.54	-252.38	41.528	-234.68	-327.8	47.656	-257.6	-332.9	45.987	-130.9	-377.98	34.457	-168.88
